<mxfile host="app.diagrams.net" modified="2022-03-29T17:17:28.250Z" agent="5.0 (Windows NT 10.0; Win64; x64) AppleWebKit/537.36 (KHTML, like Gecko) Chrome/99.0.4844.84 Safari/537.36" etag="ymzmeCTxZ8mpRNYC-Nov" version="17.2.4" type="github" pages="2">
  <diagram id="C5RBs43oDa-KdzZeNtuy" name="Page-1">
    <mxGraphModel dx="1038" dy="547" grid="1" gridSize="10" guides="1" tooltips="1" connect="1" arrows="1" fold="1" page="1" pageScale="1" pageWidth="827" pageHeight="1169" math="0" shadow="0">
      <root>
        <mxCell id="WIyWlLk6GJQsqaUBKTNV-0" />
        <mxCell id="WIyWlLk6GJQsqaUBKTNV-1" parent="WIyWlLk6GJQsqaUBKTNV-0" />
        <mxCell id="WIyWlLk6GJQsqaUBKTNV-2" value="" style="rounded=0;html=1;jettySize=auto;orthogonalLoop=1;fontSize=11;endArrow=block;endFill=0;endSize=8;strokeWidth=1;shadow=0;labelBackgroundColor=none;edgeStyle=orthogonalEdgeStyle;entryX=0.5;entryY=0;entryDx=0;entryDy=0;" parent="WIyWlLk6GJQsqaUBKTNV-1" source="WIyWlLk6GJQsqaUBKTNV-3" target="6FMXhLrM4a_OmTbyTsNK-0" edge="1">
          <mxGeometry relative="1" as="geometry" />
        </mxCell>
        <mxCell id="WIyWlLk6GJQsqaUBKTNV-3" value="MULAI" style="rounded=1;whiteSpace=wrap;html=1;fontSize=12;glass=0;strokeWidth=1;shadow=0;" parent="WIyWlLk6GJQsqaUBKTNV-1" vertex="1">
          <mxGeometry x="349" y="10" width="90" height="30" as="geometry" />
        </mxCell>
        <mxCell id="WIyWlLk6GJQsqaUBKTNV-4" value="Ya" style="rounded=0;html=1;jettySize=auto;orthogonalLoop=1;fontSize=11;endArrow=block;endFill=0;endSize=8;strokeWidth=1;shadow=0;labelBackgroundColor=none;edgeStyle=orthogonalEdgeStyle;" parent="WIyWlLk6GJQsqaUBKTNV-1" source="WIyWlLk6GJQsqaUBKTNV-6" target="WIyWlLk6GJQsqaUBKTNV-10" edge="1">
          <mxGeometry y="20" relative="1" as="geometry">
            <mxPoint as="offset" />
          </mxGeometry>
        </mxCell>
        <mxCell id="WIyWlLk6GJQsqaUBKTNV-5" value="Tidak" style="edgeStyle=orthogonalEdgeStyle;rounded=0;html=1;jettySize=auto;orthogonalLoop=1;fontSize=11;endArrow=block;endFill=0;endSize=8;strokeWidth=1;shadow=0;labelBackgroundColor=none;" parent="WIyWlLk6GJQsqaUBKTNV-1" source="WIyWlLk6GJQsqaUBKTNV-6" target="WIyWlLk6GJQsqaUBKTNV-7" edge="1">
          <mxGeometry y="10" relative="1" as="geometry">
            <mxPoint as="offset" />
          </mxGeometry>
        </mxCell>
        <mxCell id="WIyWlLk6GJQsqaUBKTNV-6" value="Bahan bakar yg diinginkan ada?" style="rhombus;whiteSpace=wrap;html=1;shadow=0;fontFamily=Helvetica;fontSize=12;align=center;strokeWidth=1;spacing=6;spacingTop=-4;" parent="WIyWlLk6GJQsqaUBKTNV-1" vertex="1">
          <mxGeometry x="336.5" y="140" width="115" height="90" as="geometry" />
        </mxCell>
        <mxCell id="WIyWlLk6GJQsqaUBKTNV-7" value="Keluar" style="rounded=1;whiteSpace=wrap;html=1;fontSize=12;glass=0;strokeWidth=1;shadow=0;" parent="WIyWlLk6GJQsqaUBKTNV-1" vertex="1">
          <mxGeometry x="493" y="100" width="90" height="30" as="geometry" />
        </mxCell>
        <mxCell id="WIyWlLk6GJQsqaUBKTNV-9" value="Ya" style="edgeStyle=orthogonalEdgeStyle;rounded=0;html=1;jettySize=auto;orthogonalLoop=1;fontSize=11;endArrow=block;endFill=0;endSize=8;strokeWidth=1;shadow=0;labelBackgroundColor=none;entryX=0;entryY=0.5;entryDx=0;entryDy=0;" parent="WIyWlLk6GJQsqaUBKTNV-1" source="WIyWlLk6GJQsqaUBKTNV-10" target="6FMXhLrM4a_OmTbyTsNK-9" edge="1">
          <mxGeometry y="10" relative="1" as="geometry">
            <mxPoint as="offset" />
            <mxPoint x="629" y="300" as="targetPoint" />
          </mxGeometry>
        </mxCell>
        <mxCell id="6FMXhLrM4a_OmTbyTsNK-17" value="" style="edgeStyle=orthogonalEdgeStyle;rounded=0;orthogonalLoop=1;jettySize=auto;html=1;" edge="1" parent="WIyWlLk6GJQsqaUBKTNV-1" source="WIyWlLk6GJQsqaUBKTNV-10" target="6FMXhLrM4a_OmTbyTsNK-16">
          <mxGeometry relative="1" as="geometry" />
        </mxCell>
        <mxCell id="WIyWlLk6GJQsqaUBKTNV-10" value="Isi Pertamax Plus?" style="rhombus;whiteSpace=wrap;html=1;shadow=0;fontFamily=Helvetica;fontSize=12;align=center;strokeWidth=1;spacing=6;spacingTop=-4;" parent="WIyWlLk6GJQsqaUBKTNV-1" vertex="1">
          <mxGeometry x="344" y="260" width="100" height="80" as="geometry" />
        </mxCell>
        <mxCell id="6FMXhLrM4a_OmTbyTsNK-0" value="Kedatangan Konsumen" style="shape=parallelogram;perimeter=parallelogramPerimeter;whiteSpace=wrap;html=1;fixedSize=1;" vertex="1" parent="WIyWlLk6GJQsqaUBKTNV-1">
          <mxGeometry x="334" y="70" width="120" height="40" as="geometry" />
        </mxCell>
        <mxCell id="6FMXhLrM4a_OmTbyTsNK-1" value="" style="rounded=0;html=1;jettySize=auto;orthogonalLoop=1;fontSize=11;endArrow=block;endFill=0;endSize=8;strokeWidth=1;shadow=0;labelBackgroundColor=none;edgeStyle=orthogonalEdgeStyle;exitX=0.5;exitY=1;exitDx=0;exitDy=0;entryX=0.5;entryY=0;entryDx=0;entryDy=0;" edge="1" parent="WIyWlLk6GJQsqaUBKTNV-1" source="6FMXhLrM4a_OmTbyTsNK-0" target="WIyWlLk6GJQsqaUBKTNV-6">
          <mxGeometry relative="1" as="geometry">
            <mxPoint x="404" y="50" as="sourcePoint" />
            <mxPoint x="394" y="140" as="targetPoint" />
          </mxGeometry>
        </mxCell>
        <mxCell id="6FMXhLrM4a_OmTbyTsNK-6" style="edgeStyle=orthogonalEdgeStyle;rounded=0;orthogonalLoop=1;jettySize=auto;html=1;entryX=0.5;entryY=0;entryDx=0;entryDy=0;" edge="1" parent="WIyWlLk6GJQsqaUBKTNV-1" source="6FMXhLrM4a_OmTbyTsNK-5" target="WIyWlLk6GJQsqaUBKTNV-7">
          <mxGeometry relative="1" as="geometry" />
        </mxCell>
        <mxCell id="6FMXhLrM4a_OmTbyTsNK-5" value="A" style="ellipse;whiteSpace=wrap;html=1;aspect=fixed;" vertex="1" parent="WIyWlLk6GJQsqaUBKTNV-1">
          <mxGeometry x="518" y="20" width="40" height="40" as="geometry" />
        </mxCell>
        <mxCell id="6FMXhLrM4a_OmTbyTsNK-11" value="" style="edgeStyle=orthogonalEdgeStyle;rounded=0;orthogonalLoop=1;jettySize=auto;html=1;" edge="1" parent="WIyWlLk6GJQsqaUBKTNV-1" source="6FMXhLrM4a_OmTbyTsNK-9" target="6FMXhLrM4a_OmTbyTsNK-10">
          <mxGeometry relative="1" as="geometry" />
        </mxCell>
        <mxCell id="6FMXhLrM4a_OmTbyTsNK-9" value="Antri di Terminal Pertamax Plus" style="rounded=0;whiteSpace=wrap;html=1;" vertex="1" parent="WIyWlLk6GJQsqaUBKTNV-1">
          <mxGeometry x="689" y="275" width="100" height="50" as="geometry" />
        </mxCell>
        <mxCell id="6FMXhLrM4a_OmTbyTsNK-13" value="" style="edgeStyle=orthogonalEdgeStyle;rounded=0;orthogonalLoop=1;jettySize=auto;html=1;" edge="1" parent="WIyWlLk6GJQsqaUBKTNV-1" source="6FMXhLrM4a_OmTbyTsNK-10" target="6FMXhLrM4a_OmTbyTsNK-12">
          <mxGeometry relative="1" as="geometry" />
        </mxCell>
        <mxCell id="6FMXhLrM4a_OmTbyTsNK-10" value="Isi Bensin" style="whiteSpace=wrap;html=1;rounded=0;" vertex="1" parent="WIyWlLk6GJQsqaUBKTNV-1">
          <mxGeometry x="689" y="350" width="100" height="40" as="geometry" />
        </mxCell>
        <mxCell id="6FMXhLrM4a_OmTbyTsNK-15" value="" style="edgeStyle=orthogonalEdgeStyle;rounded=0;orthogonalLoop=1;jettySize=auto;html=1;" edge="1" parent="WIyWlLk6GJQsqaUBKTNV-1" source="6FMXhLrM4a_OmTbyTsNK-12" target="6FMXhLrM4a_OmTbyTsNK-14">
          <mxGeometry relative="1" as="geometry" />
        </mxCell>
        <mxCell id="6FMXhLrM4a_OmTbyTsNK-12" value="Melakukan Pembayaran" style="whiteSpace=wrap;html=1;rounded=0;" vertex="1" parent="WIyWlLk6GJQsqaUBKTNV-1">
          <mxGeometry x="689" y="410" width="100" height="40" as="geometry" />
        </mxCell>
        <mxCell id="6FMXhLrM4a_OmTbyTsNK-14" value="A" style="ellipse;whiteSpace=wrap;html=1;aspect=fixed;" vertex="1" parent="WIyWlLk6GJQsqaUBKTNV-1">
          <mxGeometry x="719" y="470" width="40" height="40" as="geometry" />
        </mxCell>
        <mxCell id="6FMXhLrM4a_OmTbyTsNK-22" style="edgeStyle=orthogonalEdgeStyle;rounded=0;orthogonalLoop=1;jettySize=auto;html=1;exitX=0;exitY=0.5;exitDx=0;exitDy=0;entryX=0.5;entryY=0;entryDx=0;entryDy=0;" edge="1" parent="WIyWlLk6GJQsqaUBKTNV-1" source="6FMXhLrM4a_OmTbyTsNK-16" target="6FMXhLrM4a_OmTbyTsNK-19">
          <mxGeometry relative="1" as="geometry" />
        </mxCell>
        <mxCell id="6FMXhLrM4a_OmTbyTsNK-27" style="edgeStyle=orthogonalEdgeStyle;rounded=0;orthogonalLoop=1;jettySize=auto;html=1;exitX=1;exitY=0.5;exitDx=0;exitDy=0;entryX=0.5;entryY=0;entryDx=0;entryDy=0;" edge="1" parent="WIyWlLk6GJQsqaUBKTNV-1" source="6FMXhLrM4a_OmTbyTsNK-16" target="6FMXhLrM4a_OmTbyTsNK-26">
          <mxGeometry relative="1" as="geometry" />
        </mxCell>
        <mxCell id="6FMXhLrM4a_OmTbyTsNK-16" value="Isi Pertamax?" style="rhombus;whiteSpace=wrap;html=1;shadow=0;fontFamily=Helvetica;fontSize=12;align=center;strokeWidth=1;spacing=6;spacingTop=-4;" vertex="1" parent="WIyWlLk6GJQsqaUBKTNV-1">
          <mxGeometry x="344" y="380" width="100" height="80" as="geometry" />
        </mxCell>
        <mxCell id="6FMXhLrM4a_OmTbyTsNK-18" value="Tidak" style="text;html=1;strokeColor=none;fillColor=none;align=center;verticalAlign=middle;whiteSpace=wrap;rounded=0;" vertex="1" parent="WIyWlLk6GJQsqaUBKTNV-1">
          <mxGeometry x="385" y="340" width="60" height="30" as="geometry" />
        </mxCell>
        <mxCell id="6FMXhLrM4a_OmTbyTsNK-21" value="" style="edgeStyle=orthogonalEdgeStyle;rounded=0;orthogonalLoop=1;jettySize=auto;html=1;exitX=0.5;exitY=0;exitDx=0;exitDy=0;entryX=0.5;entryY=0;entryDx=0;entryDy=0;" edge="1" parent="WIyWlLk6GJQsqaUBKTNV-1" source="6FMXhLrM4a_OmTbyTsNK-19" target="6FMXhLrM4a_OmTbyTsNK-19">
          <mxGeometry relative="1" as="geometry" />
        </mxCell>
        <mxCell id="6FMXhLrM4a_OmTbyTsNK-35" style="edgeStyle=orthogonalEdgeStyle;rounded=0;orthogonalLoop=1;jettySize=auto;html=1;exitX=0.5;exitY=1;exitDx=0;exitDy=0;entryX=0.5;entryY=0;entryDx=0;entryDy=0;" edge="1" parent="WIyWlLk6GJQsqaUBKTNV-1" source="6FMXhLrM4a_OmTbyTsNK-19" target="6FMXhLrM4a_OmTbyTsNK-30">
          <mxGeometry relative="1" as="geometry" />
        </mxCell>
        <mxCell id="6FMXhLrM4a_OmTbyTsNK-43" style="edgeStyle=orthogonalEdgeStyle;rounded=0;orthogonalLoop=1;jettySize=auto;html=1;exitX=0;exitY=0.5;exitDx=0;exitDy=0;entryX=0.5;entryY=0;entryDx=0;entryDy=0;" edge="1" parent="WIyWlLk6GJQsqaUBKTNV-1" source="6FMXhLrM4a_OmTbyTsNK-19" target="6FMXhLrM4a_OmTbyTsNK-45">
          <mxGeometry relative="1" as="geometry">
            <mxPoint x="160" y="500.1428571428571" as="targetPoint" />
          </mxGeometry>
        </mxCell>
        <mxCell id="6FMXhLrM4a_OmTbyTsNK-19" value="Terminal Pertamax 1 Antri?" style="rhombus;whiteSpace=wrap;html=1;shadow=0;fontFamily=Helvetica;fontSize=12;align=center;strokeWidth=1;spacing=6;spacingTop=-4;" vertex="1" parent="WIyWlLk6GJQsqaUBKTNV-1">
          <mxGeometry x="210" y="460" width="100" height="80" as="geometry" />
        </mxCell>
        <mxCell id="6FMXhLrM4a_OmTbyTsNK-42" style="edgeStyle=orthogonalEdgeStyle;rounded=0;orthogonalLoop=1;jettySize=auto;html=1;exitX=0.5;exitY=1;exitDx=0;exitDy=0;entryX=0.5;entryY=0;entryDx=0;entryDy=0;" edge="1" parent="WIyWlLk6GJQsqaUBKTNV-1" source="6FMXhLrM4a_OmTbyTsNK-26" target="6FMXhLrM4a_OmTbyTsNK-37">
          <mxGeometry relative="1" as="geometry" />
        </mxCell>
        <mxCell id="6FMXhLrM4a_OmTbyTsNK-56" style="edgeStyle=orthogonalEdgeStyle;rounded=0;orthogonalLoop=1;jettySize=auto;html=1;entryX=0.5;entryY=0;entryDx=0;entryDy=0;" edge="1" parent="WIyWlLk6GJQsqaUBKTNV-1" source="6FMXhLrM4a_OmTbyTsNK-26" target="6FMXhLrM4a_OmTbyTsNK-51">
          <mxGeometry relative="1" as="geometry" />
        </mxCell>
        <mxCell id="6FMXhLrM4a_OmTbyTsNK-26" value="Terminal Pertalite 1 &lt;br&gt;Antri?" style="rhombus;whiteSpace=wrap;html=1;shadow=0;fontFamily=Helvetica;fontSize=12;align=center;strokeWidth=1;spacing=6;spacingTop=-4;" vertex="1" parent="WIyWlLk6GJQsqaUBKTNV-1">
          <mxGeometry x="477" y="460" width="100" height="80" as="geometry" />
        </mxCell>
        <mxCell id="6FMXhLrM4a_OmTbyTsNK-29" value="" style="edgeStyle=orthogonalEdgeStyle;rounded=0;orthogonalLoop=1;jettySize=auto;html=1;" edge="1" parent="WIyWlLk6GJQsqaUBKTNV-1" source="6FMXhLrM4a_OmTbyTsNK-30" target="6FMXhLrM4a_OmTbyTsNK-32">
          <mxGeometry relative="1" as="geometry" />
        </mxCell>
        <mxCell id="6FMXhLrM4a_OmTbyTsNK-30" value="Antri di Terminal Pertamax 1" style="rounded=0;whiteSpace=wrap;html=1;" vertex="1" parent="WIyWlLk6GJQsqaUBKTNV-1">
          <mxGeometry x="210" y="560" width="100" height="50" as="geometry" />
        </mxCell>
        <mxCell id="6FMXhLrM4a_OmTbyTsNK-31" value="" style="edgeStyle=orthogonalEdgeStyle;rounded=0;orthogonalLoop=1;jettySize=auto;html=1;" edge="1" parent="WIyWlLk6GJQsqaUBKTNV-1" source="6FMXhLrM4a_OmTbyTsNK-32" target="6FMXhLrM4a_OmTbyTsNK-34">
          <mxGeometry relative="1" as="geometry" />
        </mxCell>
        <mxCell id="6FMXhLrM4a_OmTbyTsNK-32" value="Isi Bensin" style="whiteSpace=wrap;html=1;rounded=0;" vertex="1" parent="WIyWlLk6GJQsqaUBKTNV-1">
          <mxGeometry x="210" y="635" width="100" height="40" as="geometry" />
        </mxCell>
        <mxCell id="6FMXhLrM4a_OmTbyTsNK-61" style="edgeStyle=orthogonalEdgeStyle;rounded=0;orthogonalLoop=1;jettySize=auto;html=1;entryX=0.5;entryY=0;entryDx=0;entryDy=0;exitX=0.5;exitY=1;exitDx=0;exitDy=0;" edge="1" parent="WIyWlLk6GJQsqaUBKTNV-1" source="6FMXhLrM4a_OmTbyTsNK-34" target="6FMXhLrM4a_OmTbyTsNK-57">
          <mxGeometry relative="1" as="geometry" />
        </mxCell>
        <mxCell id="6FMXhLrM4a_OmTbyTsNK-34" value="Melakukan Pembayaran" style="whiteSpace=wrap;html=1;rounded=0;" vertex="1" parent="WIyWlLk6GJQsqaUBKTNV-1">
          <mxGeometry x="210" y="695" width="100" height="40" as="geometry" />
        </mxCell>
        <mxCell id="6FMXhLrM4a_OmTbyTsNK-36" value="" style="edgeStyle=orthogonalEdgeStyle;rounded=0;orthogonalLoop=1;jettySize=auto;html=1;" edge="1" parent="WIyWlLk6GJQsqaUBKTNV-1" source="6FMXhLrM4a_OmTbyTsNK-37" target="6FMXhLrM4a_OmTbyTsNK-39">
          <mxGeometry relative="1" as="geometry" />
        </mxCell>
        <mxCell id="6FMXhLrM4a_OmTbyTsNK-37" value="Antri di Terminal Pertalite 1" style="rounded=0;whiteSpace=wrap;html=1;" vertex="1" parent="WIyWlLk6GJQsqaUBKTNV-1">
          <mxGeometry x="477" y="560" width="100" height="50" as="geometry" />
        </mxCell>
        <mxCell id="6FMXhLrM4a_OmTbyTsNK-38" value="" style="edgeStyle=orthogonalEdgeStyle;rounded=0;orthogonalLoop=1;jettySize=auto;html=1;" edge="1" parent="WIyWlLk6GJQsqaUBKTNV-1" source="6FMXhLrM4a_OmTbyTsNK-39" target="6FMXhLrM4a_OmTbyTsNK-41">
          <mxGeometry relative="1" as="geometry" />
        </mxCell>
        <mxCell id="6FMXhLrM4a_OmTbyTsNK-39" value="Isi Bensin" style="whiteSpace=wrap;html=1;rounded=0;" vertex="1" parent="WIyWlLk6GJQsqaUBKTNV-1">
          <mxGeometry x="477" y="635" width="100" height="40" as="geometry" />
        </mxCell>
        <mxCell id="6FMXhLrM4a_OmTbyTsNK-62" style="edgeStyle=orthogonalEdgeStyle;rounded=0;orthogonalLoop=1;jettySize=auto;html=1;entryX=0.5;entryY=0;entryDx=0;entryDy=0;exitX=0.5;exitY=1;exitDx=0;exitDy=0;" edge="1" parent="WIyWlLk6GJQsqaUBKTNV-1" source="6FMXhLrM4a_OmTbyTsNK-41" target="6FMXhLrM4a_OmTbyTsNK-57">
          <mxGeometry relative="1" as="geometry" />
        </mxCell>
        <mxCell id="6FMXhLrM4a_OmTbyTsNK-41" value="Melakukan Pembayaran" style="whiteSpace=wrap;html=1;rounded=0;" vertex="1" parent="WIyWlLk6GJQsqaUBKTNV-1">
          <mxGeometry x="477" y="695" width="100" height="40" as="geometry" />
        </mxCell>
        <mxCell id="6FMXhLrM4a_OmTbyTsNK-44" value="" style="edgeStyle=orthogonalEdgeStyle;rounded=0;orthogonalLoop=1;jettySize=auto;html=1;" edge="1" parent="WIyWlLk6GJQsqaUBKTNV-1" source="6FMXhLrM4a_OmTbyTsNK-45" target="6FMXhLrM4a_OmTbyTsNK-47">
          <mxGeometry relative="1" as="geometry" />
        </mxCell>
        <mxCell id="6FMXhLrM4a_OmTbyTsNK-45" value="Antri di Terminal Pertamax 2" style="rounded=0;whiteSpace=wrap;html=1;" vertex="1" parent="WIyWlLk6GJQsqaUBKTNV-1">
          <mxGeometry x="70" y="560" width="100" height="50" as="geometry" />
        </mxCell>
        <mxCell id="6FMXhLrM4a_OmTbyTsNK-46" value="" style="edgeStyle=orthogonalEdgeStyle;rounded=0;orthogonalLoop=1;jettySize=auto;html=1;" edge="1" parent="WIyWlLk6GJQsqaUBKTNV-1" source="6FMXhLrM4a_OmTbyTsNK-47" target="6FMXhLrM4a_OmTbyTsNK-49">
          <mxGeometry relative="1" as="geometry" />
        </mxCell>
        <mxCell id="6FMXhLrM4a_OmTbyTsNK-47" value="Isi Bensin" style="whiteSpace=wrap;html=1;rounded=0;" vertex="1" parent="WIyWlLk6GJQsqaUBKTNV-1">
          <mxGeometry x="70" y="635" width="100" height="40" as="geometry" />
        </mxCell>
        <mxCell id="6FMXhLrM4a_OmTbyTsNK-60" style="edgeStyle=orthogonalEdgeStyle;rounded=0;orthogonalLoop=1;jettySize=auto;html=1;entryX=0.5;entryY=0;entryDx=0;entryDy=0;exitX=0.5;exitY=1;exitDx=0;exitDy=0;" edge="1" parent="WIyWlLk6GJQsqaUBKTNV-1" source="6FMXhLrM4a_OmTbyTsNK-49" target="6FMXhLrM4a_OmTbyTsNK-57">
          <mxGeometry relative="1" as="geometry" />
        </mxCell>
        <mxCell id="6FMXhLrM4a_OmTbyTsNK-49" value="Melakukan Pembayaran" style="whiteSpace=wrap;html=1;rounded=0;" vertex="1" parent="WIyWlLk6GJQsqaUBKTNV-1">
          <mxGeometry x="70" y="695" width="100" height="40" as="geometry" />
        </mxCell>
        <mxCell id="6FMXhLrM4a_OmTbyTsNK-50" value="" style="edgeStyle=orthogonalEdgeStyle;rounded=0;orthogonalLoop=1;jettySize=auto;html=1;" edge="1" parent="WIyWlLk6GJQsqaUBKTNV-1" source="6FMXhLrM4a_OmTbyTsNK-51" target="6FMXhLrM4a_OmTbyTsNK-53">
          <mxGeometry relative="1" as="geometry" />
        </mxCell>
        <mxCell id="6FMXhLrM4a_OmTbyTsNK-51" value="Antri di Terminal Pertalite 2" style="rounded=0;whiteSpace=wrap;html=1;" vertex="1" parent="WIyWlLk6GJQsqaUBKTNV-1">
          <mxGeometry x="610" y="560" width="100" height="50" as="geometry" />
        </mxCell>
        <mxCell id="6FMXhLrM4a_OmTbyTsNK-52" value="" style="edgeStyle=orthogonalEdgeStyle;rounded=0;orthogonalLoop=1;jettySize=auto;html=1;" edge="1" parent="WIyWlLk6GJQsqaUBKTNV-1" source="6FMXhLrM4a_OmTbyTsNK-53" target="6FMXhLrM4a_OmTbyTsNK-55">
          <mxGeometry relative="1" as="geometry" />
        </mxCell>
        <mxCell id="6FMXhLrM4a_OmTbyTsNK-53" value="Isi Bensin" style="whiteSpace=wrap;html=1;rounded=0;" vertex="1" parent="WIyWlLk6GJQsqaUBKTNV-1">
          <mxGeometry x="610" y="635" width="100" height="40" as="geometry" />
        </mxCell>
        <mxCell id="6FMXhLrM4a_OmTbyTsNK-63" style="edgeStyle=orthogonalEdgeStyle;rounded=0;orthogonalLoop=1;jettySize=auto;html=1;exitX=0.5;exitY=1;exitDx=0;exitDy=0;" edge="1" parent="WIyWlLk6GJQsqaUBKTNV-1" source="6FMXhLrM4a_OmTbyTsNK-55">
          <mxGeometry relative="1" as="geometry">
            <mxPoint x="400" y="810" as="targetPoint" />
          </mxGeometry>
        </mxCell>
        <mxCell id="6FMXhLrM4a_OmTbyTsNK-55" value="Melakukan Pembayaran" style="whiteSpace=wrap;html=1;rounded=0;" vertex="1" parent="WIyWlLk6GJQsqaUBKTNV-1">
          <mxGeometry x="610" y="695" width="100" height="40" as="geometry" />
        </mxCell>
        <mxCell id="6FMXhLrM4a_OmTbyTsNK-57" value="A" style="ellipse;whiteSpace=wrap;html=1;aspect=fixed;" vertex="1" parent="WIyWlLk6GJQsqaUBKTNV-1">
          <mxGeometry x="379" y="810" width="40" height="40" as="geometry" />
        </mxCell>
        <mxCell id="6FMXhLrM4a_OmTbyTsNK-64" value="Tidak" style="text;html=1;strokeColor=none;fillColor=none;align=center;verticalAlign=middle;whiteSpace=wrap;rounded=0;" vertex="1" parent="WIyWlLk6GJQsqaUBKTNV-1">
          <mxGeometry x="451.5" y="390" width="60" height="30" as="geometry" />
        </mxCell>
        <mxCell id="6FMXhLrM4a_OmTbyTsNK-65" value="Tidak" style="text;html=1;strokeColor=none;fillColor=none;align=center;verticalAlign=middle;whiteSpace=wrap;rounded=0;" vertex="1" parent="WIyWlLk6GJQsqaUBKTNV-1">
          <mxGeometry x="518" y="530" width="60" height="30" as="geometry" />
        </mxCell>
        <mxCell id="6FMXhLrM4a_OmTbyTsNK-66" value="Tidak" style="text;html=1;strokeColor=none;fillColor=none;align=center;verticalAlign=middle;whiteSpace=wrap;rounded=0;" vertex="1" parent="WIyWlLk6GJQsqaUBKTNV-1">
          <mxGeometry x="250" y="530" width="60" height="30" as="geometry" />
        </mxCell>
        <mxCell id="6FMXhLrM4a_OmTbyTsNK-67" value="Ya" style="text;html=1;strokeColor=none;fillColor=none;align=center;verticalAlign=middle;whiteSpace=wrap;rounded=0;" vertex="1" parent="WIyWlLk6GJQsqaUBKTNV-1">
          <mxGeometry x="276.5" y="390" width="60" height="30" as="geometry" />
        </mxCell>
        <mxCell id="6FMXhLrM4a_OmTbyTsNK-69" value="Ya" style="text;html=1;strokeColor=none;fillColor=none;align=center;verticalAlign=middle;whiteSpace=wrap;rounded=0;" vertex="1" parent="WIyWlLk6GJQsqaUBKTNV-1">
          <mxGeometry x="130" y="475" width="60" height="30" as="geometry" />
        </mxCell>
        <mxCell id="6FMXhLrM4a_OmTbyTsNK-70" value="Ya" style="text;html=1;strokeColor=none;fillColor=none;align=center;verticalAlign=middle;whiteSpace=wrap;rounded=0;" vertex="1" parent="WIyWlLk6GJQsqaUBKTNV-1">
          <mxGeometry x="583" y="475" width="60" height="30" as="geometry" />
        </mxCell>
      </root>
    </mxGraphModel>
  </diagram>
  <diagram id="10K2x441AR7GhvcF7Q19" name="Page-2">
    <mxGraphModel dx="1038" dy="547" grid="1" gridSize="10" guides="1" tooltips="1" connect="1" arrows="1" fold="1" page="1" pageScale="1" pageWidth="850" pageHeight="1100" math="0" shadow="0">
      <root>
        <mxCell id="0" />
        <mxCell id="1" parent="0" />
        <mxCell id="60JGmkQ33EIF-Y8mZQBK-67" style="edgeStyle=orthogonalEdgeStyle;rounded=0;orthogonalLoop=1;jettySize=auto;html=1;exitX=0.5;exitY=1;exitDx=0;exitDy=0;" edge="1" parent="1" source="60JGmkQ33EIF-Y8mZQBK-2" target="60JGmkQ33EIF-Y8mZQBK-72">
          <mxGeometry relative="1" as="geometry">
            <mxPoint x="394" y="80" as="targetPoint" />
          </mxGeometry>
        </mxCell>
        <mxCell id="60JGmkQ33EIF-Y8mZQBK-2" value="MULAI" style="rounded=1;whiteSpace=wrap;html=1;fontSize=12;glass=0;strokeWidth=1;shadow=0;" vertex="1" parent="1">
          <mxGeometry x="349" y="10" width="90" height="30" as="geometry" />
        </mxCell>
        <mxCell id="60JGmkQ33EIF-Y8mZQBK-71" value="" style="edgeStyle=orthogonalEdgeStyle;rounded=0;orthogonalLoop=1;jettySize=auto;html=1;exitX=0.5;exitY=1;exitDx=0;exitDy=0;" edge="1" parent="1" source="60JGmkQ33EIF-Y8mZQBK-72" target="60JGmkQ33EIF-Y8mZQBK-70">
          <mxGeometry relative="1" as="geometry">
            <mxPoint x="394" y="120" as="sourcePoint" />
          </mxGeometry>
        </mxCell>
        <mxCell id="60JGmkQ33EIF-Y8mZQBK-80" value="" style="edgeStyle=orthogonalEdgeStyle;rounded=0;orthogonalLoop=1;jettySize=auto;html=1;" edge="1" parent="1" source="60JGmkQ33EIF-Y8mZQBK-70" target="60JGmkQ33EIF-Y8mZQBK-79">
          <mxGeometry relative="1" as="geometry" />
        </mxCell>
        <mxCell id="60JGmkQ33EIF-Y8mZQBK-70" value="Akses Halaman List Product" style="rounded=0;whiteSpace=wrap;html=1;" vertex="1" parent="1">
          <mxGeometry x="342.63" y="220" width="102.75" height="50" as="geometry" />
        </mxCell>
        <mxCell id="60JGmkQ33EIF-Y8mZQBK-74" style="edgeStyle=orthogonalEdgeStyle;rounded=0;orthogonalLoop=1;jettySize=auto;html=1;" edge="1" parent="1" source="60JGmkQ33EIF-Y8mZQBK-72">
          <mxGeometry relative="1" as="geometry">
            <mxPoint x="394" y="60" as="targetPoint" />
            <Array as="points">
              <mxPoint x="467" y="125" />
              <mxPoint x="467" y="60" />
            </Array>
          </mxGeometry>
        </mxCell>
        <mxCell id="60JGmkQ33EIF-Y8mZQBK-72" value="&lt;br&gt;Login Kedalam Sistem" style="rhombus;whiteSpace=wrap;html=1;shadow=0;fontFamily=Helvetica;fontSize=12;align=center;strokeWidth=1;spacing=6;spacingTop=-4;" vertex="1" parent="1">
          <mxGeometry x="341" y="80" width="106" height="90" as="geometry" />
        </mxCell>
        <mxCell id="60JGmkQ33EIF-Y8mZQBK-75" value="Tidak/Gagal" style="text;html=1;strokeColor=none;fillColor=none;align=center;verticalAlign=middle;whiteSpace=wrap;rounded=0;" vertex="1" parent="1">
          <mxGeometry x="470" y="80" width="60" height="30" as="geometry" />
        </mxCell>
        <mxCell id="60JGmkQ33EIF-Y8mZQBK-76" value="Ya/Berhasil" style="text;html=1;strokeColor=none;fillColor=none;align=center;verticalAlign=middle;whiteSpace=wrap;rounded=0;" vertex="1" parent="1">
          <mxGeometry x="401" y="170" width="60" height="30" as="geometry" />
        </mxCell>
        <mxCell id="60JGmkQ33EIF-Y8mZQBK-83" value="" style="edgeStyle=orthogonalEdgeStyle;rounded=0;orthogonalLoop=1;jettySize=auto;html=1;" edge="1" parent="1" source="60JGmkQ33EIF-Y8mZQBK-79" target="60JGmkQ33EIF-Y8mZQBK-82">
          <mxGeometry relative="1" as="geometry" />
        </mxCell>
        <mxCell id="60JGmkQ33EIF-Y8mZQBK-87" value="" style="edgeStyle=orthogonalEdgeStyle;rounded=0;orthogonalLoop=1;jettySize=auto;html=1;" edge="1" parent="1" source="60JGmkQ33EIF-Y8mZQBK-79" target="60JGmkQ33EIF-Y8mZQBK-86">
          <mxGeometry relative="1" as="geometry" />
        </mxCell>
        <mxCell id="60JGmkQ33EIF-Y8mZQBK-79" value="Apakah Ada Produk Yang Sudah Terjual" style="rhombus;whiteSpace=wrap;html=1;rounded=0;" vertex="1" parent="1">
          <mxGeometry x="326" y="320" width="135" height="135" as="geometry" />
        </mxCell>
        <mxCell id="60JGmkQ33EIF-Y8mZQBK-84" style="edgeStyle=orthogonalEdgeStyle;rounded=0;orthogonalLoop=1;jettySize=auto;html=1;" edge="1" parent="1" source="60JGmkQ33EIF-Y8mZQBK-82">
          <mxGeometry relative="1" as="geometry">
            <mxPoint x="390" y="290" as="targetPoint" />
            <Array as="points">
              <mxPoint x="586" y="290" />
            </Array>
          </mxGeometry>
        </mxCell>
        <mxCell id="60JGmkQ33EIF-Y8mZQBK-82" value="Delete Produk" style="whiteSpace=wrap;html=1;rounded=0;" vertex="1" parent="1">
          <mxGeometry x="540" y="361.25" width="91.5" height="52.5" as="geometry" />
        </mxCell>
        <mxCell id="60JGmkQ33EIF-Y8mZQBK-85" value="Ya" style="text;html=1;strokeColor=none;fillColor=none;align=center;verticalAlign=middle;whiteSpace=wrap;rounded=0;" vertex="1" parent="1">
          <mxGeometry x="470" y="361.25" width="60" height="30" as="geometry" />
        </mxCell>
        <mxCell id="60JGmkQ33EIF-Y8mZQBK-90" style="edgeStyle=orthogonalEdgeStyle;rounded=0;orthogonalLoop=1;jettySize=auto;html=1;entryX=0.5;entryY=0;entryDx=0;entryDy=0;" edge="1" parent="1" source="60JGmkQ33EIF-Y8mZQBK-86" target="60JGmkQ33EIF-Y8mZQBK-89">
          <mxGeometry relative="1" as="geometry" />
        </mxCell>
        <mxCell id="60JGmkQ33EIF-Y8mZQBK-86" value="Masuk Kehalaman Tambah Produk" style="whiteSpace=wrap;html=1;rounded=0;" vertex="1" parent="1">
          <mxGeometry x="334.01" y="500" width="120" height="60" as="geometry" />
        </mxCell>
        <mxCell id="60JGmkQ33EIF-Y8mZQBK-88" value="Tidak" style="text;html=1;strokeColor=none;fillColor=none;align=center;verticalAlign=middle;whiteSpace=wrap;rounded=0;" vertex="1" parent="1">
          <mxGeometry x="387" y="455" width="60" height="30" as="geometry" />
        </mxCell>
        <mxCell id="60JGmkQ33EIF-Y8mZQBK-94" value="" style="edgeStyle=orthogonalEdgeStyle;rounded=0;orthogonalLoop=1;jettySize=auto;html=1;" edge="1" parent="1" source="60JGmkQ33EIF-Y8mZQBK-89" target="60JGmkQ33EIF-Y8mZQBK-93">
          <mxGeometry relative="1" as="geometry" />
        </mxCell>
        <mxCell id="60JGmkQ33EIF-Y8mZQBK-89" value="Input Field Yang Dibutuhkan Pada Sistem" style="shape=parallelogram;perimeter=parallelogramPerimeter;whiteSpace=wrap;html=1;fixedSize=1;" vertex="1" parent="1">
          <mxGeometry x="330.25" y="600" width="126.5" height="60" as="geometry" />
        </mxCell>
        <mxCell id="60JGmkQ33EIF-Y8mZQBK-95" style="edgeStyle=orthogonalEdgeStyle;rounded=0;orthogonalLoop=1;jettySize=auto;html=1;" edge="1" parent="1" source="60JGmkQ33EIF-Y8mZQBK-93">
          <mxGeometry relative="1" as="geometry">
            <mxPoint x="390" y="580" as="targetPoint" />
            <Array as="points">
              <mxPoint x="500" y="765" />
              <mxPoint x="500" y="580" />
            </Array>
          </mxGeometry>
        </mxCell>
        <mxCell id="60JGmkQ33EIF-Y8mZQBK-98" value="" style="edgeStyle=orthogonalEdgeStyle;rounded=0;orthogonalLoop=1;jettySize=auto;html=1;" edge="1" parent="1" source="60JGmkQ33EIF-Y8mZQBK-93" target="60JGmkQ33EIF-Y8mZQBK-97">
          <mxGeometry relative="1" as="geometry" />
        </mxCell>
        <mxCell id="60JGmkQ33EIF-Y8mZQBK-93" value="Cek Ada Kesalahan/Kekurangan Input" style="rhombus;whiteSpace=wrap;html=1;" vertex="1" parent="1">
          <mxGeometry x="324.5" y="700" width="136.5" height="130" as="geometry" />
        </mxCell>
        <mxCell id="60JGmkQ33EIF-Y8mZQBK-96" value="Ya" style="text;html=1;strokeColor=none;fillColor=none;align=center;verticalAlign=middle;whiteSpace=wrap;rounded=0;" vertex="1" parent="1">
          <mxGeometry x="480" y="660" width="60" height="30" as="geometry" />
        </mxCell>
        <mxCell id="60JGmkQ33EIF-Y8mZQBK-101" style="edgeStyle=orthogonalEdgeStyle;rounded=0;orthogonalLoop=1;jettySize=auto;html=1;entryX=0.5;entryY=0;entryDx=0;entryDy=0;" edge="1" parent="1" source="60JGmkQ33EIF-Y8mZQBK-97" target="60JGmkQ33EIF-Y8mZQBK-100">
          <mxGeometry relative="1" as="geometry" />
        </mxCell>
        <mxCell id="60JGmkQ33EIF-Y8mZQBK-97" value="Submit Data" style="whiteSpace=wrap;html=1;" vertex="1" parent="1">
          <mxGeometry x="339.13" y="880" width="107.25" height="40" as="geometry" />
        </mxCell>
        <mxCell id="60JGmkQ33EIF-Y8mZQBK-99" value="Tidak" style="text;html=1;strokeColor=none;fillColor=none;align=center;verticalAlign=middle;whiteSpace=wrap;rounded=0;" vertex="1" parent="1">
          <mxGeometry x="379" y="840" width="60" height="30" as="geometry" />
        </mxCell>
        <mxCell id="60JGmkQ33EIF-Y8mZQBK-100" value="SELESAI" style="rounded=1;whiteSpace=wrap;html=1;fontSize=12;glass=0;strokeWidth=1;shadow=0;" vertex="1" parent="1">
          <mxGeometry x="348.5" y="950" width="90" height="30" as="geometry" />
        </mxCell>
      </root>
    </mxGraphModel>
  </diagram>
</mxfile>
